<svg xmlns="http://www.w3.org/2000/svg" width="32" height="32" viewBox="0 0 32 32" fill="none">
  <rect width="32" height="32" rx="6" fill="white"/>
  <path d="M8 6C6.89543 6 6 6.89543 6 8V19C6 21.2091 7.79086 23 10 23H11V22C11 20.8954 11.8954 20 13 20H15C16.1046 20 17 20.8954 17 22V26H22C23.1046 26 24 25.1046 24 24V20H26C26 22.2091 24.2091 24 22 24H19V22C19 19.7909 17.2091 18 15 18H13C10.7909 18 9 19.7909 9 22V24H10C6.68629 24 4 21.3137 4 18V8C4 5.79086 5.79086 4 8 4H24C26.2091 4 28 5.79086 28 8V18C28 20.2091 26.2091 22 24 22H22C19.7909 22 18 20.2091 18 18V16H20V18C20 19.1046 20.8954 20 22 20H24C25.1046 20 26 19.1046 26 18V8C26 6.89543 25.1046 6 24 6H8Z" fill="#EC4899"/>
</svg> 